<?xml version="1.0" standalone="no"?>
<!DOCTYPE svg PUBLIC "-//W3C//DTD SVG 20010904//EN"
 "http://www.w3.org/TR/2001/REC-SVG-20010904/DTD/svg10.dtd">
<svg version="1.0" xmlns="http://www.w3.org/2000/svg"
 width="192.000000pt" height="192.000000pt" viewBox="0 0 192.000000 192.000000"
 preserveAspectRatio="xMidYMid meet">
<metadata>
Created by potrace 1.11, written by Peter Selinger 2001-2013
</metadata>
<g transform="translate(0.000000,192.000000) scale(0.100000,-0.100000)"
fill="#000000" stroke="none">
<path d="M840 1743 c0 -5 -13 -21 -28 -38 -38 -41 -73 -127 -76 -188 -5 -78
30 -193 82 -267 15 -23 13 -22 -23 6 -58 46 -132 88 -200 114 -63 23 -181 31
-257 17 -78 -14 -186 -74 -267 -147 -34 -30 -34 -31 -15 -48 114 -106 296
-171 443 -159 97 8 252 69 277 109 13 20 -38 45 -131 64 -11 3 -69 7 -130 11
-60 3 -112 8 -115 10 -10 9 372 0 410 -10 39 -11 42 -10 65 18 95 119 122 291
64 408 -30 61 -99 129 -99 100z"/>
<path d="M999 1279 c-82 -23 -177 -127 -193 -214 -4 -17 -7 -155 -7 -307 -1
-306 6 -357 59 -420 38 -47 50 -56 112 -86 l55 -27 300 1 c204 0 313 4 342 12
65 19 134 80 167 148 l30 59 2 273 c1 194 -2 272 -10 272 -8 0 -7 3 1 8 15 10
1 88 -26 140 -11 22 -41 58 -66 80 -77 68 -96 71 -433 71 -163 -1 -313 -5
-333 -10z m326 -219 c61 -140 75 -166 107 -197 71 -68 196 -95 268 -58 18 9
30 12 26 7 -3 -5 -52 -29 -108 -53 -57 -24 -121 -56 -143 -72 -89 -63 -137
-188 -105 -273 6 -15 9 -29 7 -31 -2 -2 -26 47 -53 109 -57 133 -109 192 -189
221 -60 21 -87 21 -148 3 -55 -16 -61 -13 -14 8 239 109 260 122 300 202 31
62 37 107 22 167 -15 60 -6 50 30 -33z m-395 -364 c0 -2 -8 -10 -17 -17 -16
-13 -17 -12 -4 4 13 16 21 21 21 13z"/>
</g>
</svg>
